<?xml version="1.0" encoding="utf-8"?>
<!-- Generator: Adobe Illustrator 16.0.4, SVG Export Plug-In . SVG Version: 6.00 Build 0)  -->
<!DOCTYPE svg PUBLIC "-//W3C//DTD SVG 1.1//EN" "http://www.w3.org/Graphics/SVG/1.1/DTD/svg11.dtd">
<svg version="1.1" id="Layer_1" xmlns="http://www.w3.org/2000/svg" xmlns:xlink="http://www.w3.org/1999/xlink" x="0px" y="0px"
	 width="170px" height="40px" viewBox="0 0 170 40" enable-background="new 0 0 170 40" xml:space="preserve">
<g>
	<path fill="#ED1C24" d="M26.35,19.985c0,3.557-2.882,6.437-6.438,6.437c-3.556,0-6.437-2.88-6.437-6.437
		c0-3.556,2.881-6.437,6.437-6.437C23.468,13.548,26.35,16.429,26.35,19.985"/>
	<path fill="#00529C" d="M39.804,19.985c0,10.969-8.924,19.892-19.893,19.892c-12.869,0-19.891-10.318-19.891-19.892
		c0-10.968,8.923-19.891,19.891-19.891c2.222,0,4.359,0.365,6.355,1.04l-3.164,7.349c-1.017-0.281-2.086-0.433-3.191-0.433
		c-6.581,0-11.935,5.354-11.935,11.935c0,6.581,5.354,11.936,11.935,11.936c6.364,0,11.582-5.007,11.919-11.286L39.804,19.985z"/>
	<g>
		<path fill="#00529C" d="M46.786,4.965V4.867c0-2.641,1.85-4.441,4.321-4.441c2.093,0,3.651,1.023,3.858,3.165h-2.02
			c-0.147-1.046-0.73-1.607-1.826-1.607c-1.375,0-2.251,1.071-2.251,2.873v0.097c0,1.802,0.827,2.848,2.264,2.848
			c1.083,0,1.837-0.547,1.996-1.667h1.935c-0.219,2.154-1.765,3.262-3.908,3.262C48.306,9.396,46.786,7.643,46.786,4.965"/>
		<path fill="#00529C" d="M60.771,5.392c-0.062-0.962-0.548-1.425-1.388-1.425c-0.792,0-1.327,0.523-1.461,1.425H60.771z
			 M56.108,6.158V6.061c0-2.009,1.423-3.311,3.274-3.311c1.643,0,3.104,0.962,3.104,3.238v0.486h-4.589
			c0.048,1.059,0.62,1.668,1.582,1.668c0.815,0,1.217-0.353,1.327-0.889h1.668c-0.207,1.375-1.303,2.142-3.043,2.142
			C57.508,9.395,56.108,8.191,56.108,6.158"/>
		<path fill="#00529C" d="M63.921,2.896h1.766v1.011c0.316-0.633,1.01-1.157,2.069-1.157c1.253,0,2.143,0.754,2.143,2.459v4.053
			h-1.766V5.464c0-0.865-0.342-1.278-1.12-1.278c-0.753,0-1.326,0.462-1.326,1.399v3.676h-1.766V2.896z"/>
		<path fill="#00529C" d="M71.796,7.375V4.15h-0.815V2.896h0.815V1.521h1.752v1.375h1.339V4.15h-1.339v3.067
			c0,0.511,0.255,0.754,0.707,0.754c0.268,0,0.461-0.037,0.669-0.121v1.363c-0.243,0.085-0.597,0.171-1.071,0.171
			C72.515,9.383,71.796,8.702,71.796,7.375"/>
		<path fill="#00529C" d="M76.312,2.896h1.765v1.217c0.402-0.852,1.021-1.302,2.057-1.314v1.643
			c-1.303-0.011-2.057,0.415-2.057,1.631v3.189h-1.765V2.896z"/>
		<path fill="#00529C" d="M81.326,6.998V2.896h1.753v3.859c0,0.864,0.353,1.278,1.107,1.278c0.742,0,1.327-0.463,1.327-1.4V2.896
			h1.752v6.367h-1.752V8.264c-0.33,0.646-0.975,1.131-2.021,1.131C82.251,9.395,81.326,8.666,81.326,6.998"/>
		<path fill="#00529C" d="M89.019,2.896h1.764V3.87c0.317-0.597,1-1.121,1.948-1.121c0.84,0,1.472,0.354,1.777,1.108
			C95.02,3.09,95.846,2.75,96.649,2.75c1.18,0,2.095,0.742,2.095,2.435v4.077h-1.753V5.379c0-0.815-0.365-1.181-0.999-1.181
			c-0.682,0-1.229,0.438-1.229,1.302v3.761H93.01V5.379c0-0.815-0.376-1.181-0.998-1.181c-0.682,0-1.229,0.438-1.229,1.302v3.761
			h-1.764V2.896z"/>
	</g>
	<g>
		<path fill="#00529C" d="M51.861,19.889v-0.096c0-1.291-0.634-1.925-1.522-1.925c-0.925,0-1.559,0.646-1.559,1.925v0.096
			c0,1.279,0.61,1.9,1.57,1.9C51.325,21.789,51.861,21.131,51.861,19.889 M47.078,16.664h1.765v0.999
			c0.353-0.608,1.095-1.145,2.033-1.145c1.558,0,2.774,1.157,2.774,3.262v0.098c0,2.106-1.192,3.287-2.774,3.287
			c-0.987,0-1.704-0.487-2.033-1.109v3.142h-1.765V16.664z"/>
		<path fill="#00529C" d="M55.086,16.664h1.765v1.217c0.402-0.852,1.022-1.302,2.057-1.315v1.644
			c-1.301-0.013-2.057,0.414-2.057,1.631v3.188h-1.765V16.664z"/>
		<path fill="#00529C" d="M64.701,19.89v-0.085c0-1.216-0.571-1.948-1.558-1.948c-0.973,0-1.558,0.707-1.558,1.923v0.097
			c0,1.218,0.56,1.947,1.558,1.947C64.129,21.824,64.701,21.096,64.701,19.89 M59.784,19.915v-0.099
			c0-1.995,1.448-3.298,3.358-3.298c1.911,0,3.348,1.279,3.348,3.262v0.097c0,2.009-1.448,3.288-3.358,3.288
			C61.232,23.165,59.784,21.898,59.784,19.915"/>
		<path fill="#00529C" d="M70.372,16.664h1.766v1.217c0.402-0.852,1.022-1.302,2.056-1.315v1.644
			c-1.301-0.013-2.056,0.414-2.056,1.631v3.188h-1.766V16.664z"/>
		<path fill="#00529C" d="M79.744,19.158c-0.061-0.961-0.548-1.422-1.387-1.422c-0.792,0-1.328,0.523-1.462,1.422H79.744z
			 M75.083,19.926v-0.098c0-2.008,1.423-3.311,3.274-3.311c1.643,0,3.102,0.962,3.102,3.238v0.486h-4.587
			c0.047,1.059,0.621,1.668,1.582,1.668c0.814,0,1.218-0.354,1.325-0.889h1.668c-0.206,1.374-1.302,2.143-3.042,2.143
			C76.481,23.165,75.083,21.959,75.083,19.926"/>
		<path fill="#00529C" d="M87.387,19.683v-0.085c0-1.083-0.57-1.74-1.533-1.74c-0.986,0-1.532,0.707-1.532,1.753v0.098
			c0,1.061,0.619,1.716,1.496,1.716C86.741,21.424,87.387,20.768,87.387,19.683 M82.567,23.165h1.754
			c0.109,0.558,0.511,0.924,1.41,0.924c1.07,0,1.606-0.56,1.606-1.557V21.57c-0.352,0.62-1.106,1.181-2.044,1.181
			c-1.546,0-2.774-1.156-2.774-3.043v-0.086c0-1.824,1.217-3.104,2.797-3.104c1.036,0,1.657,0.45,2.021,1.095v-0.949h1.754v5.868
			c-0.013,1.886-1.267,2.846-3.36,2.846C83.675,25.378,82.737,24.477,82.567,23.165"/>
		<path fill="#00529C" d="M90.892,16.664h1.753v6.365h-1.753V16.664z M90.759,14.839c0-0.548,0.438-0.962,0.998-0.962
			c0.572,0,1.009,0.414,1.009,0.962c0,0.547-0.437,0.962-1.009,0.962C91.197,15.801,90.759,15.386,90.759,14.839"/>
		<path fill="#00529C" d="M98.962,19.89v-0.085c0-1.216-0.571-1.948-1.559-1.948c-0.974,0-1.558,0.707-1.558,1.923v0.097
			c0,1.218,0.561,1.947,1.558,1.947C98.391,21.824,98.962,21.096,98.962,19.89 M94.045,19.915v-0.099
			c0-1.995,1.448-3.298,3.358-3.298c1.911,0,3.348,1.279,3.348,3.262v0.097c0,2.009-1.447,3.288-3.359,3.288
			C95.493,23.165,94.045,21.898,94.045,19.915"/>
		<path fill="#00529C" d="M102.149,16.664h1.767v1.011c0.315-0.633,1.01-1.157,2.068-1.157c1.255,0,2.143,0.754,2.143,2.46v4.051
			h-1.766v-3.797c0-0.864-0.34-1.277-1.12-1.277c-0.754,0-1.325,0.462-1.325,1.399v3.675h-1.767V16.664z"/>
		<path fill="#00529C" d="M112.558,13.865h1.849l-1.266,1.935h-1.276L112.558,13.865z M113.506,20.804v-0.536h-0.682
			c-1.023,0-1.619,0.22-1.619,0.9c0,0.461,0.28,0.767,0.925,0.767C112.909,21.935,113.506,21.508,113.506,20.804 M109.478,21.265
			c0-1.484,1.363-2.044,3.311-2.044h0.718v-0.257c0-0.754-0.23-1.166-1.033-1.166c-0.694,0-1.011,0.351-1.084,0.899h-1.669
			c0.11-1.509,1.304-2.179,2.861-2.179s2.665,0.633,2.665,2.362v4.149h-1.716v-0.766c-0.366,0.512-0.925,0.901-1.924,0.901
			C110.451,23.165,109.478,22.604,109.478,21.265"/>
	</g>
</g>
<g>
	<rect x="116.999" y="13.78" fill="#00529C" width="1.753" height="9.249"/>
	<g>
		<path fill="#00529C" d="M120.528,16.664h1.765v1.011c0.318-0.633,1.011-1.157,2.07-1.157c1.253,0,2.142,0.754,2.142,2.46v4.051
			h-1.766v-3.797c0-0.864-0.34-1.277-1.12-1.277c-0.753,0-1.326,0.462-1.326,1.399v3.675h-1.765V16.664z"/>
	</g>
	<path fill="#00529C" d="M129.133,13.865h1.851l-1.266,1.936h-1.277L129.133,13.865z M128.258,16.664h1.751v6.365h-1.751V16.664z"/>
	<g>
		<path fill="#00529C" d="M134.33,16.664h1.765v1.217c0.402-0.852,1.022-1.302,2.057-1.315v1.644
			c-1.303-0.013-2.057,0.414-2.057,1.631v3.188h-1.765V16.664z"/>
		<path fill="#00529C" d="M143.944,19.89v-0.085c0-1.216-0.571-1.948-1.558-1.948c-0.973,0-1.558,0.707-1.558,1.923v0.097
			c0,1.218,0.56,1.947,1.558,1.947C143.373,21.824,143.944,21.096,143.944,19.89 M139.028,19.915v-0.099
			c0-1.995,1.448-3.298,3.358-3.298c1.911,0,3.349,1.279,3.349,3.262v0.097c0,2.009-1.449,3.288-3.36,3.288
			C140.477,23.165,139.028,21.898,139.028,19.915"/>
	</g>
	<polygon fill="#00529C" points="146.332,22.836 149.471,18.028 146.647,18.028 146.647,16.664 152.026,16.664 152.026,16.883 
		148.863,21.668 151.904,21.668 151.904,23.029 146.332,23.029 	"/>
	<polygon fill="#00529C" points="152.829,16.664 154.716,16.664 156.238,21.218 157.746,16.664 159.451,16.664 157.14,23.029 
		155.155,23.029 	"/>
	<g>
		<path fill="#00529C" d="M164.916,19.89v-0.085c0-1.216-0.572-1.948-1.558-1.948c-0.975,0-1.559,0.707-1.559,1.923v0.097
			c0,1.218,0.56,1.947,1.559,1.947C164.344,21.824,164.916,21.096,164.916,19.89 M159.999,19.915v-0.099
			c0-1.995,1.448-3.298,3.359-3.298c1.909,0,3.346,1.279,3.346,3.262v0.097c0,2.009-1.447,3.288-3.358,3.288
			C161.447,23.165,159.999,21.898,159.999,19.915"/>
		<path fill="#00529C" d="M167.972,14.839c0-0.548,0.438-0.962,0.997-0.962c0.571,0,1.011,0.414,1.011,0.962
			c0,0.547-0.439,0.962-1.011,0.962C168.409,15.801,167.972,15.386,167.972,14.839 M167.266,23.991
			c0.607-0.048,0.839-0.327,0.839-0.839v-6.488h1.753v6.476c0,1.326-0.608,2.143-2.592,2.168V23.991z"/>
		<path fill="#00529C" d="M49,25.835h1.266l0.84,0.635l0.827-0.635h1.241l-1.362,1.692h-1.498L49,25.835z M46.786,32.519v-0.098
			c0-2.641,1.85-4.441,4.321-4.441c2.093,0,3.651,1.021,3.858,3.163h-2.02c-0.147-1.046-0.73-1.605-1.826-1.605
			c-1.375,0-2.251,1.07-2.251,2.871v0.096c0,1.803,0.827,2.849,2.264,2.849c1.083,0,1.837-0.548,1.996-1.666h1.935
			c-0.219,2.154-1.765,3.263-3.908,3.263C48.306,36.949,46.786,35.194,46.786,32.519"/>
		<path fill="#00529C" d="M60.771,32.943c-0.062-0.962-0.548-1.424-1.388-1.424c-0.792,0-1.327,0.524-1.461,1.424H60.771z
			 M56.108,33.71v-0.097c0-2.009,1.423-3.311,3.274-3.311c1.643,0,3.104,0.96,3.104,3.238v0.486h-4.589
			c0.048,1.059,0.62,1.668,1.582,1.668c0.815,0,1.217-0.355,1.327-0.891h1.668c-0.207,1.376-1.303,2.143-3.043,2.143
			C57.508,36.947,56.108,35.743,56.108,33.71"/>
		<path fill="#00529C" d="M63.509,34.817h1.642c0.074,0.574,0.355,0.901,1.119,0.901c0.683,0,1-0.255,1-0.693
			c0-0.438-0.378-0.621-1.29-0.754c-1.691-0.256-2.349-0.743-2.349-1.984c0-1.328,1.217-1.984,2.519-1.984
			c1.412,0,2.47,0.511,2.627,1.972H67.16c-0.097-0.524-0.39-0.766-0.999-0.766c-0.572,0-0.9,0.267-0.9,0.655
			c0,0.402,0.304,0.562,1.229,0.695c1.594,0.231,2.471,0.632,2.471,1.995c0,1.374-0.998,2.095-2.678,2.095
			C64.566,36.949,63.568,36.193,63.509,34.817"/>
	</g>
</g>
<g>
	<polygon fill="#00529C" points="70.348,27.565 72.113,27.565 72.113,33.139 74.158,30.449 76.031,30.449 73.72,33.345 
		76.215,36.813 74.219,36.813 72.113,33.808 72.113,36.813 70.348,36.813 	"/>
	<g>
		<path fill="#00529C" d="M79.878,27.648h1.85l-1.266,1.937h-1.277L79.878,27.648z M81.314,32.943
			c-0.062-0.962-0.549-1.424-1.388-1.424c-0.791,0-1.326,0.524-1.462,1.424H81.314z M76.651,33.71v-0.097
			c0-2.009,1.426-3.311,3.275-3.311c1.643,0,3.104,0.96,3.104,3.238v0.486h-4.589c0.05,1.059,0.62,1.668,1.582,1.668
			c0.816,0,1.218-0.355,1.328-0.891h1.667c-0.207,1.376-1.303,2.143-3.043,2.143C78.053,36.947,76.651,35.743,76.651,33.71"/>
		<path fill="#00529C" d="M86.889,30.449h1.765v1.218c0.402-0.854,1.022-1.304,2.058-1.316v1.644
			c-1.304-0.013-2.058,0.414-2.058,1.632v3.188h-1.765V30.449z"/>
		<path fill="#00529C" d="M96.261,32.943c-0.062-0.962-0.548-1.424-1.388-1.424c-0.791,0-1.326,0.524-1.461,1.424H96.261z
			 M91.598,33.71v-0.097c0-2.009,1.424-3.311,3.275-3.311c1.644,0,3.103,0.96,3.103,3.238v0.486h-4.588
			c0.049,1.059,0.62,1.668,1.582,1.668c0.816,0,1.217-0.355,1.327-0.891h1.666c-0.205,1.376-1.301,2.143-3.042,2.143
			C92.998,36.947,91.598,35.743,91.598,33.71"/>
		<path fill="#00529C" d="M104.195,33.674v-0.098c0-1.289-0.633-1.922-1.521-1.922c-0.924,0-1.558,0.644-1.558,1.922v0.098
			c0,1.278,0.608,1.899,1.569,1.899C103.661,35.573,104.195,34.915,104.195,33.674 M99.412,30.449h1.766v0.997
			c0.352-0.608,1.094-1.144,2.031-1.144c1.558,0,2.775,1.156,2.775,3.261v0.098c0,2.105-1.193,3.288-2.775,3.288
			c-0.985,0-1.704-0.487-2.031-1.108v3.141h-1.766V30.449z"/>
		<path fill="#00529C" d="M107.371,34.551v-4.102h1.752v3.857c0,0.864,0.354,1.278,1.109,1.278c0.742,0,1.327-0.464,1.327-1.399
			v-3.736h1.752v6.364h-1.752v-0.997c-0.329,0.646-0.975,1.133-2.021,1.133C108.297,36.949,107.371,36.218,107.371,34.551"/>
		<path fill="#00529C" d="M119.858,33.674v-0.098c0-1.289-0.631-1.922-1.52-1.922c-0.925,0-1.558,0.644-1.558,1.922v0.098
			c0,1.278,0.606,1.899,1.568,1.899C119.323,35.573,119.858,34.915,119.858,33.674 M116.842,35.804v1.01h-1.766v-9.248h1.766v3.881
			c0.352-0.61,1.094-1.144,2.032-1.144c1.557,0,2.774,1.156,2.774,3.261v0.098c0,2.105-1.192,3.288-2.774,3.288
			C117.887,36.949,117.17,36.462,116.842,35.804"/>
	</g>
	<rect x="123.12" y="27.565" fill="#00529C" width="1.753" height="9.248"/>
	<g>
		<path fill="#00529C" d="M126.675,30.449h1.752v6.364h-1.752V30.449z M126.542,28.623c0-0.548,0.438-0.962,0.998-0.962
			c0.572,0,1.01,0.414,1.01,0.962c0,0.549-0.438,0.962-1.01,0.962C126.979,29.585,126.542,29.172,126.542,28.623"/>
	</g>
	<polygon fill="#00529C" points="130.204,27.565 131.97,27.565 131.97,33.139 134.015,30.449 135.888,30.449 133.576,33.345 
		136.071,36.813 134.075,36.813 131.97,33.808 131.97,36.813 130.204,36.813 	"/>
	<polygon fill="#00529C" points="139.259,36.168 136.728,30.447 138.627,30.447 140.173,34.271 141.597,30.447 143.289,30.447 
		139.843,38.981 138.14,38.981 	"/>
</g>
</svg>
